<svg width="26" height="43" viewBox="0 0 26 43" version="1.1" xmlns="http://www.w3.org/2000/svg" xmlns:xlink="http://www.w3.org/1999/xlink">
<g id="Canvas" fill="none">
<g id="Group">
<g id="&#226;&#136;&#133;">
<path d="M 19 0.867769L 16.3829 3.34711C 17.8834 4.95868 18.6336 6.84711 18.6336 9.0124C 18.6336 11.4008 17.7394 13.4421 15.9511 15.1364C 14.1628 16.8223 12.008 17.6653 9.48691 17.6653C 7.21005 17.6653 5.21671 16.9628 3.50689 15.5579L 0.915978 18L 0 17.1322L 2.60399 14.7025C 1.10354 13.0661 0.353306 11.1694 0.353306 9.0124C 0.353306 6.62397 1.24311 4.58678 3.02273 2.90083C 4.81107 1.20661 6.96579 0.359504 9.48691 0.359504C 11.7725 0.359504 13.7658 1.07025 15.4669 2.49174L 18.0971 0L 19 0.867769ZM 14.551 3.34711C 13.1028 2.16529 11.4148 1.57438 9.48691 1.57438C 7.33219 1.57438 5.48278 2.30579 3.93871 3.76859C 2.40335 5.22314 1.63567 6.97107 1.63567 9.0124C 1.63567 10.8388 2.25941 12.438 3.50689 13.8099L 14.551 3.34711ZM 17.3382 9.0124C 17.3382 7.18595 16.7144 5.58678 15.4669 4.21488L 4.42286 14.6777C 5.87098 15.8595 7.559 16.4504 9.48691 16.4504C 11.6416 16.4504 13.4867 15.7231 15.022 14.2686C 16.5661 12.8058 17.3382 11.0537 17.3382 9.0124Z" transform="translate(3 0)" fill="white"/>
</g>
<g id="unit">
<path d="M 5.97682 11.6671C 5.5185 12.6399 4.77491 13.1263 3.74604 13.1263C 2.98841 13.1263 2.37576 12.9158 1.90809 12.4949C 1.44978 12.074 1.22062 11.424 1.22062 10.5447L 1.22062 6.27958L 2.329 6.27958L 2.329 10.4606C 2.329 11.5923 2.85279 12.1582 3.90037 12.1582C 4.50834 12.1582 4.99939 11.9244 5.37353 11.4567C 5.75702 10.989 5.95811 10.3904 5.97682 9.66084L 5.97682 6.27958L 7.0852 6.27958L 7.0852 13L 5.97682 13L 5.97682 11.6671ZM 10.9918 7.58438C 11.4314 6.61163 12.1844 6.12525 13.2507 6.12525C 14.0457 6.12525 14.663 6.38715 15.1026 6.91094C 15.5516 7.43473 15.7761 8.15026 15.7761 9.05754L 15.7761 13L 14.6817 13L 14.6817 9.05754C 14.6817 8.41216 14.5274 7.92578 14.2187 7.59841C 13.9194 7.27104 13.4892 7.10736 12.928 7.10736C 12.3668 7.10736 11.9131 7.33652 11.567 7.79483C 11.221 8.25315 11.0386 8.88918 11.0199 9.70293L 11.0199 13L 9.9115 13L 9.9115 6.29361L 10.8655 6.29361L 10.9918 7.58438ZM 18.4494 6.27958L 19.5577 6.27958L 19.5577 13L 18.4494 13L 18.4494 6.27958ZM 18.9965 4.70821C 18.7721 4.70821 18.5943 4.64742 18.4634 4.52582C 18.3418 4.39487 18.281 4.22651 18.281 4.02074C 18.281 3.80561 18.3418 3.63725 18.4634 3.51565C 18.5943 3.38471 18.7721 3.31923 18.9965 3.31923C 19.221 3.31923 19.3987 3.38471 19.5297 3.51565C 19.67 3.63725 19.7401 3.80561 19.7401 4.02074C 19.7401 4.22651 19.67 4.39487 19.5297 4.52582C 19.3987 4.64742 19.221 4.70821 18.9965 4.70821ZM 26.0793 12.8036C 25.2749 13.1777 24.5407 13.2572 23.8766 13.0421C 23.3996 12.8924 23.0628 12.5791 22.8664 12.1021C 22.7635 11.8682 22.7121 11.5876 22.7121 11.2603L 22.7121 7.13542L 21.6318 7.13542L 21.6318 6.29361L 22.7121 6.29361L 22.7121 4.42761L 23.8064 4.42761L 23.8064 6.29361L 25.911 6.29361L 25.911 7.13542L 23.8064 7.13542L 23.8064 11.2462C 23.8064 11.929 24.1245 12.2704 24.7605 12.2704C 25.1066 12.2704 25.4947 12.1863 25.925 12.0179L 26.0793 12.8036Z" transform="translate(-1 29)" fill="white"/>
</g>
</g>
</g>
</svg>

