<svg width="127" height="31" viewBox="0 0 127 31" fill="none" xmlns="http://www.w3.org/2000/svg">
<path d="M44.76 22.162C43.836 22.162 42.96 22.042 42.132 21.802C41.316 21.55 40.65 21.214 40.134 20.794C39.858 20.59 39.72 20.302 39.72 19.93C39.72 19.678 39.792 19.462 39.936 19.282C40.092 19.09 40.272 18.994 40.476 18.994C40.692 18.994 40.938 19.078 41.214 19.246C41.73 19.618 42.27 19.888 42.834 20.056C43.398 20.224 44.022 20.308 44.706 20.308C45.582 20.308 46.254 20.158 46.722 19.858C47.19 19.546 47.424 19.096 47.424 18.508C47.424 18.052 47.202 17.704 46.758 17.464C46.326 17.212 45.6 16.972 44.58 16.744C43.524 16.516 42.666 16.252 42.006 15.952C41.346 15.652 40.848 15.268 40.512 14.8C40.176 14.332 40.008 13.738 40.008 13.018C40.008 12.274 40.218 11.608 40.638 11.02C41.058 10.432 41.64 9.976 42.384 9.652C43.14 9.316 43.986 9.148 44.922 9.148C46.638 9.148 48.036 9.604 49.116 10.516C49.272 10.648 49.38 10.78 49.44 10.912C49.512 11.032 49.548 11.188 49.548 11.38C49.548 11.632 49.47 11.854 49.314 12.046C49.17 12.226 48.996 12.316 48.792 12.316C48.672 12.316 48.558 12.298 48.45 12.262C48.354 12.226 48.222 12.16 48.054 12.064C47.562 11.704 47.082 11.44 46.614 11.272C46.158 11.092 45.594 11.002 44.922 11.002C44.106 11.002 43.458 11.17 42.978 11.506C42.51 11.83 42.276 12.286 42.276 12.874C42.276 13.366 42.486 13.744 42.906 14.008C43.326 14.272 44.04 14.518 45.048 14.746C46.116 14.986 46.98 15.256 47.64 15.556C48.312 15.844 48.822 16.216 49.17 16.672C49.53 17.128 49.71 17.698 49.71 18.382C49.71 19.126 49.5 19.786 49.08 20.362C48.672 20.926 48.09 21.37 47.334 21.694C46.59 22.006 45.732 22.162 44.76 22.162ZM56.7605 12.982C57.8165 12.982 58.6025 13.282 59.1185 13.882C59.6345 14.482 59.8925 15.388 59.8925 16.6V21.028C59.8925 21.364 59.7905 21.628 59.5865 21.82C59.3945 22.012 59.1245 22.108 58.7765 22.108C58.4285 22.108 58.1525 22.012 57.9485 21.82C57.7445 21.628 57.6425 21.364 57.6425 21.028V16.726C57.6425 16.042 57.5105 15.544 57.2465 15.232C56.9945 14.92 56.5925 14.764 56.0405 14.764C55.3925 14.764 54.8705 14.968 54.4745 15.376C54.0905 15.784 53.8985 16.33 53.8985 17.014V21.028C53.8985 21.364 53.7965 21.628 53.5925 21.82C53.3885 22.012 53.1125 22.108 52.7645 22.108C52.4165 22.108 52.1405 22.012 51.9365 21.82C51.7445 21.628 51.6485 21.364 51.6485 21.028V14.062C51.6485 13.75 51.7505 13.498 51.9545 13.306C52.1585 13.114 52.4345 13.018 52.7825 13.018C53.0945 13.018 53.3465 13.114 53.5385 13.306C53.7425 13.486 53.8445 13.726 53.8445 14.026V14.512C54.1445 14.02 54.5465 13.642 55.0505 13.378C55.5545 13.114 56.1245 12.982 56.7605 12.982ZM65.9938 12.982C67.2178 12.982 68.1238 13.288 68.7118 13.9C69.3118 14.5 69.6118 15.418 69.6118 16.654V21.046C69.6118 21.37 69.5158 21.628 69.3238 21.82C69.1318 22 68.8678 22.09 68.5318 22.09C68.2198 22.09 67.9618 21.994 67.7578 21.802C67.5658 21.61 67.4698 21.358 67.4698 21.046V20.65C67.2658 21.118 66.9418 21.484 66.4978 21.748C66.0658 22.012 65.5618 22.144 64.9858 22.144C64.3978 22.144 63.8638 22.024 63.3838 21.784C62.9038 21.544 62.5258 21.214 62.2498 20.794C61.9738 20.374 61.8358 19.906 61.8358 19.39C61.8358 18.742 61.9978 18.232 62.3218 17.86C62.6578 17.488 63.1978 17.218 63.9418 17.05C64.6858 16.882 65.7118 16.798 67.0198 16.798H67.4698V16.384C67.4698 15.796 67.3438 15.37 67.0918 15.106C66.8398 14.83 66.4318 14.692 65.8678 14.692C65.5198 14.692 65.1658 14.746 64.8058 14.854C64.4458 14.95 64.0198 15.094 63.5278 15.286C63.2158 15.442 62.9878 15.52 62.8438 15.52C62.6278 15.52 62.4478 15.442 62.3038 15.286C62.1718 15.13 62.1058 14.926 62.1058 14.674C62.1058 14.47 62.1538 14.296 62.2498 14.152C62.3578 13.996 62.5318 13.852 62.7718 13.72C63.1918 13.492 63.6898 13.312 64.2658 13.18C64.8538 13.048 65.4298 12.982 65.9938 12.982ZM65.4358 20.524C66.0358 20.524 66.5218 20.326 66.8938 19.93C67.2778 19.522 67.4698 19 67.4698 18.364V17.986H67.1458C66.3418 17.986 65.7178 18.022 65.2738 18.094C64.8298 18.166 64.5118 18.292 64.3198 18.472C64.1278 18.652 64.0318 18.898 64.0318 19.21C64.0318 19.594 64.1638 19.912 64.4278 20.164C64.7038 20.404 65.0398 20.524 65.4358 20.524ZM76.9565 12.982C77.7125 12.982 78.3845 13.174 78.9725 13.558C79.5725 13.942 80.0345 14.488 80.3585 15.196C80.6945 15.892 80.8625 16.696 80.8625 17.608C80.8625 18.52 80.6945 19.318 80.3585 20.002C80.0345 20.686 79.5785 21.214 78.9905 21.586C78.4025 21.958 77.7245 22.144 76.9565 22.144C76.3325 22.144 75.7745 22.012 75.2825 21.748C74.7905 21.484 74.4125 21.118 74.1485 20.65V24.322C74.1485 24.634 74.0465 24.88 73.8425 25.06C73.6385 25.24 73.3685 25.33 73.0325 25.33C72.6965 25.33 72.4205 25.234 72.2045 25.042C72.0005 24.85 71.8985 24.598 71.8985 24.286V14.08C71.8985 13.756 71.9945 13.498 72.1865 13.306C72.3905 13.114 72.6605 13.018 72.9965 13.018C73.3325 13.018 73.6025 13.114 73.8065 13.306C74.0105 13.498 74.1125 13.756 74.1125 14.08V14.53C74.3765 14.038 74.7545 13.66 75.2465 13.396C75.7505 13.12 76.3205 12.982 76.9565 12.982ZM76.3625 20.398C77.0705 20.398 77.6225 20.158 78.0185 19.678C78.4145 19.186 78.6125 18.496 78.6125 17.608C78.6125 16.696 78.4145 15.988 78.0185 15.484C77.6225 14.98 77.0705 14.728 76.3625 14.728C75.6425 14.728 75.0845 14.974 74.6885 15.466C74.3045 15.958 74.1125 16.66 74.1125 17.572C74.1125 18.472 74.3045 19.168 74.6885 19.66C75.0845 20.152 75.6425 20.398 76.3625 20.398ZM86.6151 22.144C85.7391 22.144 84.9651 21.958 84.2931 21.586C83.6331 21.214 83.1231 20.686 82.7631 20.002C82.4031 19.318 82.2231 18.52 82.2231 17.608C82.2231 16.696 82.4091 15.892 82.7811 15.196C83.1651 14.488 83.6991 13.942 84.3831 13.558C85.0671 13.174 85.8531 12.982 86.7411 12.982C87.2091 12.982 87.6771 13.048 88.1451 13.18C88.6251 13.312 89.0451 13.492 89.4051 13.72C89.7891 13.972 89.9811 14.29 89.9811 14.674C89.9811 14.938 89.9151 15.154 89.7831 15.322C89.6631 15.478 89.5011 15.556 89.2971 15.556C89.1651 15.556 89.0271 15.526 88.8831 15.466C88.7391 15.406 88.5951 15.334 88.4511 15.25C88.1871 15.094 87.9351 14.974 87.6951 14.89C87.4551 14.794 87.1791 14.746 86.8671 14.746C86.1231 14.746 85.5471 14.992 85.1391 15.484C84.7431 15.964 84.5451 16.66 84.5451 17.572C84.5451 18.472 84.7431 19.168 85.1391 19.66C85.5471 20.14 86.1231 20.38 86.8671 20.38C87.1671 20.38 87.4311 20.338 87.6591 20.254C87.8991 20.158 88.1631 20.032 88.4511 19.876C88.6311 19.768 88.7871 19.69 88.9191 19.642C89.0511 19.582 89.1831 19.552 89.3151 19.552C89.5071 19.552 89.6691 19.636 89.8011 19.804C89.9331 19.972 89.9991 20.182 89.9991 20.434C89.9991 20.638 89.9511 20.818 89.8551 20.974C89.7711 21.118 89.6271 21.25 89.4231 21.37C89.0511 21.61 88.6191 21.802 88.1271 21.946C87.6351 22.078 87.1311 22.144 86.6151 22.144ZM95.3141 12.982C96.5381 12.982 97.4441 13.288 98.0321 13.9C98.6321 14.5 98.9321 15.418 98.9321 16.654V21.046C98.9321 21.37 98.8361 21.628 98.6441 21.82C98.4521 22 98.1881 22.09 97.8521 22.09C97.5401 22.09 97.2821 21.994 97.0781 21.802C96.8861 21.61 96.7901 21.358 96.7901 21.046V20.65C96.5861 21.118 96.2621 21.484 95.8181 21.748C95.3861 22.012 94.8821 22.144 94.3061 22.144C93.7181 22.144 93.1841 22.024 92.7041 21.784C92.2241 21.544 91.8461 21.214 91.5701 20.794C91.2941 20.374 91.1561 19.906 91.1561 19.39C91.1561 18.742 91.3181 18.232 91.6421 17.86C91.9781 17.488 92.5181 17.218 93.2621 17.05C94.0061 16.882 95.0321 16.798 96.3401 16.798H96.7901V16.384C96.7901 15.796 96.6641 15.37 96.4121 15.106C96.1601 14.83 95.7521 14.692 95.1881 14.692C94.8401 14.692 94.4861 14.746 94.1261 14.854C93.7661 14.95 93.3401 15.094 92.8481 15.286C92.5361 15.442 92.3081 15.52 92.1641 15.52C91.9481 15.52 91.7681 15.442 91.6241 15.286C91.4921 15.13 91.4261 14.926 91.4261 14.674C91.4261 14.47 91.4741 14.296 91.5701 14.152C91.6781 13.996 91.8521 13.852 92.0921 13.72C92.5121 13.492 93.0101 13.312 93.5861 13.18C94.1741 13.048 94.7501 12.982 95.3141 12.982ZM94.7561 20.524C95.3561 20.524 95.8421 20.326 96.2141 19.93C96.5981 19.522 96.7901 19 96.7901 18.364V17.986H96.4661C95.6621 17.986 95.0381 18.022 94.5941 18.094C94.1501 18.166 93.8321 18.292 93.6401 18.472C93.4481 18.652 93.3521 18.898 93.3521 19.21C93.3521 19.594 93.4841 19.912 93.7481 20.164C94.0241 20.404 94.3601 20.524 94.7561 20.524ZM106.133 13.018C106.445 12.994 106.691 13.06 106.871 13.216C107.051 13.372 107.141 13.606 107.141 13.918C107.141 14.242 107.063 14.482 106.907 14.638C106.751 14.794 106.469 14.896 106.061 14.944L105.521 14.998C104.813 15.07 104.291 15.31 103.955 15.718C103.631 16.126 103.469 16.636 103.469 17.248V21.028C103.469 21.376 103.361 21.646 103.145 21.838C102.929 22.018 102.659 22.108 102.335 22.108C102.011 22.108 101.741 22.018 101.525 21.838C101.321 21.646 101.219 21.376 101.219 21.028V14.062C101.219 13.726 101.321 13.468 101.525 13.288C101.741 13.108 102.005 13.018 102.317 13.018C102.629 13.018 102.881 13.108 103.073 13.288C103.265 13.456 103.361 13.702 103.361 14.026V14.746C103.589 14.218 103.925 13.81 104.369 13.522C104.825 13.234 105.329 13.072 105.881 13.036L106.133 13.018ZM115.278 9.22C115.614 9.22 115.89 9.316 116.106 9.508C116.322 9.7 116.43 9.952 116.43 10.264V21.028C116.43 21.352 116.328 21.61 116.124 21.802C115.92 21.994 115.65 22.09 115.314 22.09C114.978 22.09 114.708 21.994 114.504 21.802C114.3 21.61 114.198 21.352 114.198 21.028V20.578C113.934 21.07 113.55 21.454 113.046 21.73C112.554 22.006 111.99 22.144 111.354 22.144C110.598 22.144 109.92 21.952 109.32 21.568C108.732 21.184 108.27 20.644 107.934 19.948C107.61 19.24 107.448 18.43 107.448 17.518C107.448 16.606 107.61 15.808 107.934 15.124C108.27 14.44 108.732 13.912 109.32 13.54C109.908 13.168 110.586 12.982 111.354 12.982C111.99 12.982 112.554 13.114 113.046 13.378C113.538 13.642 113.916 14.014 114.18 14.494V10.228C114.18 9.928 114.276 9.688 114.468 9.508C114.672 9.316 114.942 9.22 115.278 9.22ZM111.948 20.398C112.668 20.398 113.22 20.152 113.604 19.66C114 19.168 114.198 18.466 114.198 17.554C114.198 16.642 114 15.946 113.604 15.466C113.22 14.974 112.674 14.728 111.966 14.728C111.246 14.728 110.688 14.968 110.292 15.448C109.896 15.928 109.698 16.618 109.698 17.518C109.698 18.43 109.896 19.138 110.292 19.642C110.688 20.146 111.24 20.398 111.948 20.398ZM121.93 22.144C120.622 22.144 119.566 21.886 118.762 21.37C118.378 21.142 118.186 20.818 118.186 20.398C118.186 20.158 118.252 19.966 118.384 19.822C118.516 19.666 118.678 19.588 118.87 19.588C119.074 19.588 119.356 19.684 119.716 19.876C120.1 20.056 120.448 20.194 120.76 20.29C121.084 20.386 121.492 20.434 121.984 20.434C122.488 20.434 122.878 20.35 123.154 20.182C123.442 20.014 123.586 19.78 123.586 19.48C123.586 19.276 123.526 19.114 123.406 18.994C123.298 18.874 123.094 18.766 122.794 18.67C122.506 18.562 122.062 18.442 121.462 18.31C120.394 18.094 119.626 17.788 119.158 17.392C118.702 16.996 118.474 16.45 118.474 15.754C118.474 15.226 118.63 14.752 118.942 14.332C119.254 13.9 119.68 13.57 120.22 13.342C120.772 13.102 121.396 12.982 122.092 12.982C122.596 12.982 123.082 13.048 123.55 13.18C124.018 13.3 124.438 13.48 124.81 13.72C125.194 13.96 125.386 14.278 125.386 14.674C125.386 14.914 125.32 15.118 125.188 15.286C125.056 15.442 124.894 15.52 124.702 15.52C124.57 15.52 124.438 15.496 124.306 15.448C124.186 15.388 124.03 15.304 123.838 15.196C123.49 15.016 123.19 14.884 122.938 14.8C122.686 14.704 122.374 14.656 122.002 14.656C121.558 14.656 121.204 14.746 120.94 14.926C120.688 15.106 120.562 15.352 120.562 15.664C120.562 15.964 120.694 16.192 120.958 16.348C121.222 16.504 121.732 16.66 122.488 16.816C123.292 16.984 123.922 17.176 124.378 17.392C124.834 17.608 125.158 17.878 125.35 18.202C125.554 18.526 125.656 18.94 125.656 19.444C125.656 20.26 125.314 20.914 124.63 21.406C123.958 21.898 123.058 22.144 121.93 22.144Z" fill="#2B292D"/>
<rect x="4.77104" y="11.5475" width="21.3568" height="14.5712" rx="3.5" transform="rotate(4.94567 4.77104 11.5475)" fill="#9FBFFF" stroke="white"/>
<rect x="8.1848" y="4.48793" width="25" height="17" rx="3.5" transform="rotate(21.2703 8.1848 4.48793)" fill="#F36B7F" stroke="white"/>
<path d="M5.66915 7.39871C4.61192 7.20253 3.59183 6.88246 2.52642 6.73375" stroke="black" stroke-linecap="round" stroke-linejoin="round"/>
<path d="M6.93407 4.54023C6.15121 3.50944 5.48688 2.37292 4.80396 1.27405" stroke="black" stroke-linecap="round" stroke-linejoin="round"/>
<path d="M10.4348 4.02458C10.4754 3.20396 10.4566 2.35586 10.5875 1.54553" stroke="black" stroke-linecap="round" stroke-linejoin="round"/>
<path d="M10.9032 17.8863C13.2075 17.8507 15.5608 17.3585 17.0774 15.4516C17.6964 14.6733 17.8411 13.5427 16.8046 14.8317C16.3003 15.4588 14.3201 18.2102 15.723 18.8206C16.9868 19.3705 18.4835 18.4361 19.3361 17.5726C20.9812 15.9066 14.0427 14.2234 13.665 15.1936C13.1403 16.5415 20.058 19.7846 20.8551 19.063" stroke="white" stroke-linecap="round" stroke-linejoin="round"/>
</svg>
